<!-- icon666.com - MILLIONS OF FREE VECTOR ICONS --><svg id="Layer_1" enable-background="new 0 0 74 74" viewBox="0 0 74 74" xmlns="http://www.w3.org/2000/svg"><g><path d="m29.1 32.5c.2.1.4.2.6.2.3 0 .6-.1.8-.4.3-.4.3-1.1-.2-1.4-3.7-2.9-7.2-3.6-10.7-1.9-.5.2-.7.8-.5 1.3s.8.7 1.3.5c3-1.2 5.6-.7 8.7 1.7z" fill="#000000" style="fill: rgb(255, 255, 255);"></path><path d="m30.5 42.2c-3.9 2.6-5.6 5.7-5.1 9.6.1.5.5.9 1 .9h.1c.5-.1.9-.6.9-1.1-.4-3.1 1-5.5 4.3-7.7.5-.3.6-.9.3-1.4-.5-.5-1.1-.6-1.5-.3z" fill="#000000" style="fill: rgb(255, 255, 255);"></path><path d="m43.1 45.1c-.1-.5-.7-.8-1.2-.7s-.8.7-.7 1.2c1.3 4.5 3.7 7.1 7.5 7.8h.2c.5 0 .9-.3 1-.8s-.2-1.1-.8-1.2c-3.1-.5-4.9-2.5-6-6.3z" fill="#000000" style="fill: rgb(255, 255, 255);"></path><path d="m55.7 30.8c-1.5 2.7-4 3.9-7.9 3.7-.5 0-1 .4-1 1s.4 1 1 1h.8c4.3 0 7.2-1.6 9-4.7.3-.5.1-1.1-.4-1.4-.6-.3-1.2-.1-1.5.4z" fill="#000000" style="fill: rgb(255, 255, 255);"></path><path d="m39.2 26.7c-.2.5.1 1.1.6 1.3.1 0 .2.1.3.1.4 0 .8-.2.9-.7 1.6-4.4 1.2-7.9-1.5-10.8-.4-.4-1-.4-1.4-.1-.4.4-.4 1-.1 1.4 2.2 2.4 2.6 5.1 1.2 8.8z" fill="#000000" style="fill: rgb(255, 255, 255);"></path><path d="m67.9 17c-1.3-.5-2.7-.2-3.7.7l-8.1 8.1c-.5 0-1.1 0-1.6 0-2.7.1-5.9.2-8.7 1.3 0-.1.1-.3.1-.4l18.2-18.1c.4-.4 1-.5 1.5-.3.2.1.9.4.9 1.3 0 .6.4 1 1 1s1-.4 1-1c0-1.4-.8-2.6-2.1-3.2-1.3-.5-2.7-.2-3.7.7l-16.2 16.3c.1-2.3-.3-4.5-1.3-6.5-.3-.6-.7-1.2-1.1-1.8l9.3-9.3c.4-.4.4-1 0-1.4s-1-.4-1.4 0l-9.1 9.1c-3.4-3.6-7.9-5-8.1-5-.3-.1-.7 0-.9.2-.3.2-.4.6-.3.9l.5 3.3c.2 1.1-.4 2.8-.9 4.7-.6 2.1-1.4 4.6-1.5 7.1l-.9.9c-3-1.7-6-2.4-9-1.9-6.8 1-11 7.1-11.2 7.4s-.2.6-.1 1c.1.3.4.5.8.6l3.3.5c1 .2 2.6 1.2 4.2 2.3.4.3.8.6 1.3.9l-8.3 8.3c-.9.9-2.1 1.2-3.3.8-1.4-.3-2.3-1.3-2.5-2.5-.1-.5-.6-.9-1.2-.8-.5.1-.9.6-.8 1.2.4 2 1.8 3.5 3.7 4.1.5.2 1.1.2 1.6.2 1.4 0 2.8-.5 3.8-1.6l8.6-8.6c1.5.9 3.1 1.7 4.8 2.1-3 2.5-4.9 5.4-5.4 8.7 0 .2 0 .4-.1.6l-14.7 14.6c-.4.4-.4 1 0 1.4.2.2.5.3.7.3s.5-.1.7-.3l13.1-13.1c.3 2.8 1.3 5.3 2.2 7.1l-9.3 9.3c-.4.4-.4 1 0 1.4.2.2.5.3.7.3s.5-.1.7-.3l8.9-8.9c.2.3.4.6.4.6.2.2.5.4.8.4h.1c.3 0 .6-.2.8-.5l1.5-3c.5-1 2-2.1 3.5-3.3 2.1-1.6 4.6-3.6 6.2-6.1 1.4 3.7 3.6 6.3 6.6 7.9 2.4 1.2 4.9 1.6 7 1.6 3.4 0 6.1-.9 6.3-1 .3-.1.6-.4.6-.7s0-.7-.3-.9l-2.4-2.4c-.8-.7-1.4-2.5-2-4.4-.9-2.5-2-5.5-3.9-7.9 3.9-.2 7.1-1.5 9.5-3.8 4.9-4.8 4.7-12.2 4.7-12.5s-.2-.7-.5-.8c-.3-.2-.7-.2-1 0l-2.6 1.3 5.9-5.9c.4-.4 1-.5 1.5-.3.2.1.9.4.9 1.3 0 .6.4 1 1 1s1-.4 1-1c.4-1.6-.4-2.8-1.7-3.3zm-29.7 23.8c-2.4 0-4.3-1.9-4.3-4.3s1.9-4.3 4.3-4.3c1.2 0 2.2.5 3 1.2.8.8 1.2 1.8 1.2 3 0 2.5-1.9 4.4-4.2 4.4zm-3.3-22.5c.7-2.2 1.2-4.1 1-5.6l-.2-1.7c2.1.9 5.8 3 7.7 6.7 1.5 3 1.5 6.5 0 10.5v.1s-.4 1.6-1.5 3c-1-.7-2.3-1.2-3.7-1.2-.7 0-1.3.1-1.9.3-.7-1.2-1.7-2.1-2.3-2.6-1-3 0-6.5.9-9.5zm-20.2 13-1.6-.3c1.5-1.7 4.7-4.6 8.8-5.2 3.3-.5 6.7.6 10 3.2 0 0 .1 0 .1.1 0 0 1.4.9 2.4 2.4-1.5 1.1-2.5 3-2.6 5-1.4.3-2.5 1-3.2 1.4-3.3-.1-6.3-2.2-8.9-4-1.8-1.3-3.5-2.4-5-2.6zm15.3 21.9c-1.8 1.4-3.4 2.6-4.1 4l-.7 1.4c-1.1-1.9-2.7-5.4-2.4-9.2 0-.2.1-.5.1-.7.5-3.3 2.6-6.2 6.2-8.6 0 0 .1 0 .1-.1 0 0 1.3-1.1 3-1.6.6 1.9 2.1 3.4 4 4-.1 1.4.2 2.7.4 3.5-1.2 3.1-4 5.4-6.6 7.3zm24 1.4 1.1 1.1c-2.2.5-6.5 1-10.1-.9-3-1.5-5.1-4.4-6.2-8.5v-.1s-.6-1.6-.5-3.4c2.1 0 3.9-1 5-2.6 1.3.5 2.6.7 3.4.7 2.6 2 3.8 5.5 4.9 8.5.7 2.2 1.3 4.1 2.4 5.2zm7.6-28.3c-.2 2.3-1.1 6.5-4 9.4-2.4 2.4-5.8 3.5-10 3.3h-.1s-1.7.1-3.4-.5c.2-.6.3-1.2.3-1.9 0-1.4-.4-2.6-1.2-3.7.9-1.1 1.5-2.3 1.8-3.1 2.7-1.8 6.3-1.9 9.6-2 .7 0 1.4 0 2-.1 1.5-.1 2.7-.2 3.7-.7z" fill="#000000" style="fill: rgb(255, 255, 255);"></path></g></svg>